<svg width="184" height="177" viewBox="0 0 184 177" fill="none" xmlns="http://www.w3.org/2000/svg">
<path d="M26.13 109.56C40.5612 109.56 52.26 97.8612 52.26 83.43C52.26 68.9988 40.5612 57.3 26.13 57.3C11.6988 57.3 0 68.9988 0 83.43C0 97.8612 11.6988 109.56 26.13 109.56Z" fill="#E95420"/>
<path d="M134.97 52.26C149.401 52.26 161.1 40.5612 161.1 26.13C161.1 11.6988 149.401 0 134.97 0C120.539 0 108.84 11.6988 108.84 26.13C108.84 40.5612 120.539 52.26 134.97 52.26Z" fill="#E95420"/>
<path d="M85.07 150.69C66.25 146.66 50.51 134.63 41.67 117.59C34.7 120.76 26.87 121.73 19.33 120.34C30.03 146.62 52.73 165.71 80.58 171.68C86.69 172.99 92.93 173.63 99.14 173.59C94.34 167.28 91.67 159.67 91.49 151.74C89.34 151.5 87.19 151.15 85.08 150.7L85.07 150.69Z" fill="#E95420"/>
<path d="M129.08 176.97C143.511 176.97 155.21 165.271 155.21 150.84C155.21 136.409 143.511 124.71 129.08 124.71C114.649 124.71 102.95 136.409 102.95 150.84C102.95 165.271 114.649 176.97 129.08 176.97Z" fill="#E95420"/>
<path d="M165.44 141.24C173.57 131 179.29 118.89 182.05 106.01C186.86 83.57 182.37 60.02 169.73 40.92C166.72 48.01 161.61 54.01 155.03 58.13C162.08 71.42 164.23 86.76 161.07 101.52C159.52 108.74 156.79 115.55 152.94 121.77C159.09 126.81 163.43 133.6 165.45 141.24H165.44Z" fill="#E95420"/>
<path d="M24.11 45.96C24.77 45.92 25.44 45.91 26.1 45.91C28.74 45.91 31.38 46.19 33.99 46.75C38.25 47.66 42.26 49.28 45.92 51.55C57.69 34.63 76.67 24.47 97.24 24.1C97.35 22.13 97.61 20.15 98.03 18.22C99.23 12.62 101.68 7.39 105.17 2.91C72.31 0.310001 40.37 17.27 24.11 45.96Z" fill="#E95420"/>
</svg>
